<svg width="24" height="24" viewBox="0 0 22 22" fill="none" xmlns="http://www.w3.org/2000/svg">
  <g>
    <path fill-rule="evenodd" clip-rule="evenodd" d="M14.4142 2.54433C12.689 0.485224 9.31099 0.485224 7.58584 2.54433C6.89174 3.3728 5.86954 3.91539 4.74209 4.0538C1.93991 4.39782 0.250897 7.08741 1.32794 9.49053C1.76128 10.4574 1.76128 11.5426 1.32794 12.5095C0.250897 14.9126 1.93991 17.6022 4.74209 17.9462C5.86954 18.0846 6.89174 18.6272 7.58584 19.4557C9.31099 21.5148 12.689 21.5148 14.4142 19.4557C15.1083 18.6272 16.1305 18.0846 17.2579 17.9462C20.0601 17.6022 21.7491 14.9126 20.6721 12.5095C20.2387 11.5426 20.2387 10.4574 20.6721 9.49053C21.7491 7.08741 20.0601 4.39782 17.2579 4.0538C16.1305 3.91539 15.1083 3.3728 14.4142 2.54433ZM11.1505 7.26256L11 4.73463L10.8495 7.26256C10.7598 8.76804 9.01763 9.69281 7.5547 9.01144L5.09821 7.86731L7.40419 9.25112C8.77748 10.0752 8.77748 11.9248 7.40419 12.7489L5.09821 14.1327L7.5547 12.9886C9.01763 12.3072 10.7598 13.232 10.8495 14.7374L11 17.2654L11.1505 14.7374C11.2402 13.232 12.9824 12.3072 14.4453 12.9886L16.9018 14.1327L14.5958 12.7489C13.2225 11.9248 13.2225 10.0752 14.5958 9.25112L16.9018 7.86731L14.4453 9.01144C12.9824 9.69281 11.2402 8.76804 11.1505 7.26256Z" stroke="url(#paint0_linear_0_6)" stroke-width="1.5"/>
  </g>
  <defs>
    <linearGradient id="paint0_linear_0_6" x1="1" y1="11" x2="21" y2="11" gradientUnits="userSpaceOnUse">
      <stop stop-color="#659EF9"/>
      <stop offset="1" stop-color="#FA48BE"/>
    </linearGradient>
  </defs>
</svg>
