<svg preserveAspectRatio="none" width="100%" height="100%" overflow="visible" style="display: block;" viewBox="0 0 34 34" fill="none" xmlns="http://www.w3.org/2000/svg">
<path id="Vector" d="M8.971 5.149C7.41372 6.01376 6.13013 7.29787 5.266 8.8555M7.7125 1C4.46291 1.92391 1.92319 4.4642 1 7.714M16.75 6.148C21.907 6.148 25.75 11.125 25.75 16.75C25.75 23.791 28 25.75 28 25.75H5.5C5.5 25.75 7.75 23.8285 7.75 16.75C7.75 11.125 11.593 6.148 16.75 6.148ZM16.75 6.148V3.25M19 30.25C19 31.4926 17.9926 32.5 16.75 32.5C15.5074 32.5 14.5 31.4926 14.5 30.25M24.529 5.149C25.3026 5.58089 26.0132 6.11689 26.641 6.742C27.2672 7.36946 27.8033 8.08074 28.234 8.8555M25.7875 1C29.0371 1.92391 31.5768 4.4642 32.5 7.714" stroke="var(--stroke-0, #F5F4F6)" stroke-width="1.5" stroke-linecap="round" stroke-linejoin="round"/>
</svg>
