<svg preserveAspectRatio="none" width="100%" height="100%" overflow="visible" style="display: block;" viewBox="0 0 29 29" fill="none" xmlns="http://www.w3.org/2000/svg">
<g id="Google BigQuery Icon 1" clip-path="url(#clip0_0_55)">
<path id="Vector" d="M6.45278 25.5595L0.693474 15.5838C0.472043 15.2002 0.355469 14.7652 0.355469 14.3223C0.355469 13.8794 0.472043 13.4444 0.693474 13.0609L6.45278 3.08529C6.67425 2.70171 6.99279 2.38318 7.37638 2.16173C7.75997 1.94027 8.1951 1.8237 8.63803 1.82373H20.1566C20.5995 1.82374 21.0346 1.94033 21.4182 2.16178C21.8017 2.38323 22.1202 2.70174 22.3417 3.08529L28.101 13.0609C28.3225 13.4444 28.4391 13.8795 28.4391 14.3224C28.4391 14.7653 28.3225 15.2004 28.101 15.584L22.3417 25.5595C22.1202 25.9431 21.8017 26.2615 21.4181 26.4829C21.0346 26.7043 20.5995 26.8209 20.1566 26.8209H8.63803C8.1951 26.8209 7.75996 26.7044 7.37636 26.4829C6.99276 26.2615 6.67423 25.9431 6.45278 25.5595Z" fill="url(#paint0_linear_0_55)"/>
<path id="Vector_2" opacity="0.07" d="M26.5211 19.2552L18.0513 10.7849L14.4037 9.80881L11.1274 11.0265L9.86211 14.323L10.8795 17.9934L19.8614 26.9753L21.7673 26.8906L26.5211 19.2552Z" fill="var(--fill-0, black)"/>
<g id="Group">
<path id="Vector_3" d="M14.3976 9.23242C11.5871 9.23242 9.30859 11.5109 9.30859 14.3217C9.30859 17.1322 11.5871 19.4107 14.3976 19.4107C17.2082 19.4107 19.4864 17.1322 19.4864 14.3217C19.4864 11.5109 17.208 9.23242 14.3976 9.23242ZM14.3976 18.1829C12.265 18.1829 10.5361 16.454 10.5361 14.3215C10.5361 12.1889 12.265 10.4602 14.3976 10.4602C16.5302 10.4602 18.2591 12.1891 18.2591 14.3217C18.2591 16.4543 16.5302 18.1829 14.3976 18.1829Z" fill="var(--fill-0, white)"/>
<path id="Vector_4" d="M11.9805 14.126V15.7079C12.2145 16.1097 12.5447 16.4471 12.9415 16.6897V14.126H11.9805ZM13.886 12.7925V17.0513C14.0494 17.0814 14.2166 17.0996 14.3884 17.0996C14.5451 17.0996 14.6978 17.0831 14.8476 17.0581V12.7925H13.886ZM15.8806 14.7833V16.6619C16.2836 16.4056 16.6145 16.0506 16.842 15.6307V14.7836L15.8806 14.7833ZM18.0581 17.4572L17.5309 17.9849C17.4863 18.0296 17.4612 18.0902 17.4612 18.1535C17.4612 18.2167 17.4863 18.2773 17.5309 18.3221L19.5308 20.3213C19.5755 20.3659 19.6361 20.391 19.6994 20.391C19.7626 20.391 19.8232 20.3659 19.868 20.3213L20.3952 19.7943C20.4396 19.7494 20.4645 19.6889 20.4645 19.6258C20.4645 19.5627 20.4396 19.5021 20.3952 19.4573L18.3951 17.4572C18.3503 17.4127 18.2898 17.3877 18.2266 17.3877C18.1635 17.3877 18.1029 17.4127 18.0581 17.4572Z" fill="var(--fill-0, white)"/>
</g>
</g>
<defs>
<linearGradient id="paint0_linear_0_55" x1="14.3973" y1="1.82395" x2="14.3973" y2="26.7821" gradientUnits="userSpaceOnUse">
<stop stop-color="#4387FD"/>
<stop offset="1" stop-color="#4683EA"/>
</linearGradient>
<clipPath id="clip0_0_55">
<rect width="28.8" height="28.8" fill="white"/>
</clipPath>
</defs>
</svg>
