<svg preserveAspectRatio="none" width="100%" height="100%" overflow="visible" style="display: block;" viewBox="0 0 36 36" fill="none" xmlns="http://www.w3.org/2000/svg">
<g id="Vector">
<path fill-rule="evenodd" clip-rule="evenodd" d="M34.751 17.876C34.7511 15.4231 33.1622 13.2529 30.824 12.512C31.9539 10.3352 31.5433 7.67718 29.809 5.94293C28.0748 4.20868 25.4168 3.798 23.24 4.92797C22.4994 2.58932 20.3291 1 17.876 1C15.4229 1 13.2525 2.58932 12.512 4.92797C10.3352 3.798 7.67718 4.20868 5.94293 5.94293C4.20868 7.67718 3.798 10.3352 4.92797 12.512C2.58932 13.2525 1 15.4229 1 17.876C1 20.3291 2.58932 22.4994 4.92797 23.24C3.798 25.4168 4.20868 28.0748 5.94293 29.809C7.67718 31.5433 10.3352 31.9539 12.512 30.824C13.2525 33.1626 15.4229 34.7519 17.876 34.7519C20.3291 34.7519 22.4994 33.1626 23.24 30.824C25.4168 31.9539 28.0748 31.5433 29.809 29.809C31.5433 28.0748 31.9539 25.4168 30.824 23.24C33.1619 22.4987 34.7506 20.3286 34.751 17.876Z" stroke="var(--stroke-0, #F5F4F6)" stroke-width="1.5" stroke-linecap="round" stroke-linejoin="round"/>
<path fill-rule="evenodd" clip-rule="evenodd" d="M10.001 23.576V16.226H11.051C13.9505 16.226 16.301 13.8755 16.301 10.976C16.301 9.81617 17.2412 8.87597 18.401 8.87597C19.1568 8.87597 19.8817 9.17624 20.4162 9.71071C20.9507 10.2452 21.251 10.9701 21.251 11.726V13.076C21.251 13.6559 21.7211 14.126 22.301 14.126H22.601C23.4908 14.1262 24.339 14.5028 24.936 15.1626C25.533 15.8225 25.823 16.7041 25.7345 17.5895L25.409 20.8445C25.194 22.9912 23.3875 24.6259 21.23 24.626H16.889C16.4988 24.6262 16.1105 24.5717 15.7355 24.464L13.1855 23.738C12.8104 23.6302 12.4222 23.5757 12.032 23.576H10.001Z" stroke="var(--stroke-0, #F5F4F6)" stroke-width="1.5" stroke-linecap="round" stroke-linejoin="round"/>
</g>
</svg>
