<svg width="26" height="28" viewBox="0 0 26 28" fill="none" xmlns="http://www.w3.org/2000/svg">
<g id="Group">
<path id="Vector" d="M25.0867 24.327C25.097 26.2361 23.5593 27.7907 21.6537 27.801C21.512 27.8021 21.3692 27.7941 21.2287 27.7769C19.4602 27.515 18.1647 25.9742 18.2081 24.1851V3.61563C18.1658 1.82429 19.4648 0.283466 21.2344 0.0238024C23.1274 -0.198113 24.8422 1.15854 25.0638 3.05398C25.0798 3.19353 25.0878 3.33309 25.0867 3.47378V24.327Z" fill="#F9AB00"/>
<path id="Vector_2" d="M3.43985 20.9182C5.33972 20.9182 6.87972 22.4601 6.87972 24.3624C6.87972 26.2647 5.33972 27.8067 3.43985 27.8067C1.53998 27.8067 -1.78661e-05 26.2647 -1.78661e-05 24.3624C-1.78661e-05 22.4601 1.53998 20.9182 3.43985 20.9182ZM12.4902 10.4801C10.5812 10.5854 9.10061 12.188 9.14517 14.1017V23.3524C9.14517 25.8632 10.2488 27.3869 11.8653 27.7117C13.7309 28.0904 15.5485 26.8836 15.9267 25.0156C15.9735 24.7868 15.9963 24.5546 15.9952 24.3212V13.9416C15.9986 12.0324 14.4563 10.4824 12.5496 10.479C12.5302 10.479 12.5096 10.479 12.4902 10.4801Z" fill="#E37400"/>
</g>
</svg>
