<svg preserveAspectRatio="none" width="100%" height="100%" overflow="visible" style="display: block;" viewBox="0 0 28 26" fill="none" xmlns="http://www.w3.org/2000/svg">
<g id="Group">
<path id="Vector" d="M9.52817 3.22128C9.7988 2.51087 10.1709 1.85684 10.7235 1.32685C12.9336 -0.826935 16.5872 -0.285669 18.0869 2.42066C19.2146 4.47296 20.4099 6.48015 21.5713 8.5099C23.5109 11.8815 25.473 15.2532 27.3899 18.6361C29.0025 21.4665 27.2546 25.0411 24.0521 25.5259C22.09 25.8191 20.252 24.917 19.2371 23.1579C17.5344 20.1922 15.8204 17.2265 14.1177 14.2721C14.0838 14.2045 14.0387 14.1481 13.9936 14.0917C13.8132 13.9451 13.7343 13.7309 13.6215 13.5392C12.866 12.2086 12.0879 10.8892 11.3324 9.56988C10.8475 8.71288 10.3401 7.86715 9.85518 7.01014C9.41541 6.24335 9.21243 5.4089 9.23498 4.52934C9.26881 4.07829 9.32519 3.62723 9.52817 3.22128Z" fill="var(--fill-0, #3C8BD9)"/>
<path id="Vector_2" d="M9.5316 3.22196C9.43011 3.62791 9.3399 4.03386 9.31735 4.46237C9.28352 5.40958 9.52033 6.28914 9.99393 7.11231C11.2343 9.24355 12.4747 11.3861 13.7039 13.5286C13.8166 13.7203 13.9068 13.912 14.0196 14.0924C13.343 15.2651 12.6664 16.4266 11.9786 17.5993C11.0314 19.2344 10.0841 20.8808 9.12565 22.5158C9.08055 22.5158 9.06927 22.4933 9.05799 22.4595C9.04672 22.3692 9.08055 22.2903 9.1031 22.2001C9.56543 20.5086 9.18203 19.0089 8.02057 17.7234C7.31016 16.9453 6.40805 16.5055 5.37062 16.3589C4.01746 16.1672 2.82216 16.5168 1.7509 17.3625C1.55921 17.5091 1.43517 17.7234 1.20964 17.8361C1.16453 17.8361 1.14198 17.8136 1.1307 17.7798C1.67197 16.8438 2.20196 15.9079 2.74323 14.9719C4.97595 11.0929 7.20867 7.2138 9.45267 3.346C9.47522 3.3009 9.50905 3.26707 9.5316 3.22196Z" fill="var(--fill-0, #FABC04)"/>
<path id="Vector_3" d="M1.1724 17.8131C1.38666 17.6214 1.58963 17.4184 1.81516 17.238C4.55532 15.073 8.67119 16.6404 9.26884 20.0684C9.41543 20.8916 9.3365 21.6809 9.08842 22.4703C9.07714 22.5379 9.06587 22.5943 9.04331 22.662C8.94183 22.8424 8.85162 23.0341 8.73885 23.2145C7.73525 24.8721 6.25805 25.6953 4.31851 25.5713C2.09707 25.4134 0.349229 23.7445 0.0447672 21.5343C-0.101826 20.4631 0.112425 19.4595 0.664968 18.5348C0.777731 18.3318 0.913048 18.1514 1.03709 17.9484C1.09347 17.9033 1.07092 17.8131 1.1724 17.8131Z" fill="var(--fill-0, #34A852)"/>
<path id="Vector_4" d="M1.17364 17.8117C1.12854 17.8568 1.12854 17.9357 1.0496 17.947C1.03833 17.8681 1.08343 17.823 1.12854 17.7666L1.17364 17.8117Z" fill="var(--fill-0, #FABC04)"/>
<path id="Vector_5" d="M9.04215 22.6618C8.99704 22.5829 9.04215 22.5265 9.08725 22.4701C9.09853 22.4814 9.12108 22.504 9.13236 22.5152L9.04215 22.6618Z" fill="var(--fill-0, #E1C025)"/>
</g>
</svg>
