<svg preserveAspectRatio="none" width="100%" height="100%" overflow="visible" style="display: block;" viewBox="0 0 34 36" fill="none" xmlns="http://www.w3.org/2000/svg">
<path id="Vector" d="M21.25 25.75V29.125C21.25 30.3676 20.2426 31.375 19 31.375H14.5C13.2574 31.375 12.25 30.3676 12.25 29.125V25.75M16.75 1V3.25M1 16.75H3.25M4.375 5.5L6.025 7.0855M32.5 16.75H30.25M29.125 5.5L27.475 7.0855M16.75 31.375V34.75M16.75 20.125V25.75M16.75 20.125L13.375 16.75M16.75 20.125L20.125 16.75M12.1225 25.75H21.3775C24.7884 24.057 26.9259 20.5576 26.875 16.75C26.7765 11.1994 22.3006 6.72348 16.75 6.625C11.1971 6.72357 6.72028 11.2031 6.625 16.756C6.57643 20.5615 8.71358 24.0579 12.1225 25.75Z" stroke="var(--stroke-0, #F5F4F6)" stroke-width="1.5" stroke-linecap="round" stroke-linejoin="round"/>
</svg>
