<svg preserveAspectRatio="none" width="100%" height="100%" overflow="visible" style="display: block;" viewBox="0 0 28 27" fill="none" xmlns="http://www.w3.org/2000/svg">
<g id="Group">
<path id="Vector" d="M8.12812 11.0218H11.6873C10.7961 10.4633 10.4633 9.68493 10.0177 8.24094L8.6809 3.28848C8.07172 1.06044 7.5697 0.00564061 5.12168 0.00564061H0.00564061V1.34247H0.73328C2.23368 1.34247 2.4029 1.90089 2.84851 3.57051L4.01612 7.91378C4.6253 10.0234 5.57857 11.0218 8.12812 11.0218ZM16.3691 11.0218H19.9283C22.4891 11.0218 23.3747 10.0177 23.9895 7.90814L25.1571 3.56487C25.6027 1.89525 25.8227 1.33683 27.2724 1.33683H28V0H22.9347C20.4303 0 19.9283 1.00403 19.3699 3.28284L18.033 8.23529C17.5931 9.7357 17.2546 10.4633 16.3691 11.0218ZM11.693 15.6922H16.3691V11.0161H11.693V15.6922ZM0.00564061 26.7139H5.12168C7.5697 26.7139 8.07172 25.6535 8.6809 23.4311L10.0177 18.4786C10.4633 17.0346 10.7961 16.2506 11.6873 15.6978H8.12812C5.56728 15.6978 4.61966 16.7019 4.01048 18.8114L2.84287 23.1547C2.39726 24.8243 2.23368 25.3828 0.727639 25.3828H0L0.00564061 26.7139ZM22.9291 26.7139H27.9944V25.3771H27.2667C25.8227 25.3771 25.5971 24.8187 25.1515 23.1491L23.9839 18.8058C23.3747 16.6906 22.4835 15.6922 19.9226 15.6922H16.3691C17.2603 16.2506 17.5818 16.9726 18.0274 18.473L19.3642 23.4255C19.9226 25.7099 20.4247 26.7139 22.9291 26.7139Z" fill="var(--fill-0, #7856FF)"/>
</g>
</svg>
