<svg width="28" height="28" viewBox="0 0 28 28" fill="none" xmlns="http://www.w3.org/2000/svg">
  <path d="M17.5 0H4.375C3.89376 0 3.43247 0.191406 3.09273 0.531635C2.7529 0.871864 2.5625 1.33327 2.5625 1.81458V26.1854C2.5625 26.6667 2.7529 27.1281 3.09273 27.4684C3.43247 27.8086 3.89376 28 4.375 28H23.625C24.1062 28 24.5675 27.8086 24.9073 27.4684C25.2471 27.1281 25.4375 26.6667 25.4375 26.1854V8.31458L17.5 0Z" fill="#0F9D58"/>
  <path d="M19.6875 8.75H17.5V0L25.4375 8.31458V8.75H21.875C21.2937 8.75 20.7363 8.51875 20.3234 8.10586C19.9104 7.69297 19.6792 7.13542 19.6875 6.55417V8.75Z" fill="#87CEAC"/>
  <path d="M8.75 14V23.625H19.25V14H8.75ZM13.5625 22.3125H10.0625V20.5625H13.5625V22.3125ZM13.5625 19.6875H10.0625V17.9375H13.5625V19.6875ZM13.5625 17.0625H10.0625V15.3125H13.5625V17.0625ZM17.9375 22.3125H14.4375V20.5625H17.9375V22.3125ZM17.9375 19.6875H14.4375V17.9375H17.9375V19.6875ZM17.9375 17.0625H14.4375V15.3125H17.9375V17.0625Z" fill="#F1F1F1"/>
</svg>
