<svg preserveAspectRatio="none" width="100%" height="100%" overflow="visible" style="display: block;" viewBox="0 0 28 28" fill="none" xmlns="http://www.w3.org/2000/svg">
<g id="Group">
<path id="Vector" fill-rule="evenodd" clip-rule="evenodd" d="M10.2485 0C8.70333 0.00114169 7.45282 1.25472 7.45396 2.79943C7.45282 4.34414 8.70447 5.59772 10.2496 5.59886H13.0453V2.80057C13.0464 1.25586 11.7948 0.00228338 10.2485 0C10.2496 0 10.2496 0 10.2485 0ZM10.2485 7.46667H2.79567C1.25051 7.46781 -0.0011389 8.72139 3.121e-06 10.2661C-0.00228092 11.8108 1.24937 13.0644 2.79452 13.0667H10.2485C11.7936 13.0655 13.0453 11.8119 13.0441 10.2672C13.0453 8.72139 11.7936 7.46781 10.2485 7.46667Z" fill="var(--fill-0, #36C5F0)"/>
<path id="Vector_2" fill-rule="evenodd" clip-rule="evenodd" d="M27.9528 10.2661C27.954 8.72139 26.7023 7.46781 25.1572 7.46667C23.612 7.46781 22.3604 8.72139 22.3615 10.2661V13.0667H25.1572C26.7023 13.0655 27.954 11.8119 27.9528 10.2661ZM20.4989 10.2661V2.79943C20.5 1.25586 19.2495 0.00228338 17.7044 0C16.1592 0.00114169 14.9076 1.25472 14.9087 2.79943V10.2661C14.9064 11.8108 16.1581 13.0644 17.7032 13.0667C19.2484 13.0655 20.5 11.8119 20.4989 10.2661Z" fill="var(--fill-0, #2EB67D)"/>
<path id="Vector_3" fill-rule="evenodd" clip-rule="evenodd" d="M17.7021 28.0001C19.2473 27.999 20.4989 26.7454 20.4978 25.2007C20.4989 23.656 19.2473 22.4024 17.7021 22.4013H14.9065V25.2007C14.9053 26.7443 16.157 27.9978 17.7021 28.0001ZM17.7021 20.5323H25.1561C26.7012 20.5312 27.9529 19.2776 27.9517 17.7329C27.954 16.1882 26.7024 14.9346 25.1572 14.9323H17.7033C16.1581 14.9334 14.9065 16.187 14.9076 17.7317C14.9065 19.2776 16.157 20.5312 17.7021 20.5323Z" fill="var(--fill-0, #ECB22E)"/>
<path id="Vector_4" fill-rule="evenodd" clip-rule="evenodd" d="M4.11966e-06 17.7328C-0.0011379 19.2775 1.25051 20.5311 2.79567 20.5322C4.34082 20.5311 5.59247 19.2775 5.59133 17.7328V14.9333H2.79567C1.25051 14.9345 -0.0011379 16.1881 4.11966e-06 17.7328ZM7.45396 17.7328V25.1994C7.45168 26.7441 8.70333 27.9977 10.2485 28C11.7936 27.9989 13.0453 26.7453 13.0441 25.2006V17.735C13.0464 16.1903 11.7948 14.9368 10.2496 14.9345C8.70333 14.9345 7.45282 16.1881 7.45396 17.7328Z" fill="var(--fill-0, #E01E5A)"/>
</g>
</svg>
