<svg width="28" height="28" viewBox="0 0 28 28" fill="none" xmlns="http://www.w3.org/2000/svg">
  <rect width="28" height="28" rx="6" fill="#635BFF"/>
  <path d="M14 10.5C12.6875 10.5 12.25 11.2 12.25 11.8125C12.25 13.3875 17.5 13.125 17.5 16.1875C17.5 18.1125 16.0125 19.25 14 19.25C11.6375 19.25 10.0625 17.9375 10.0625 17.9375L10.9375 16.1875C10.9375 16.1875 12.25 17.0625 13.8125 17.0625C15.05 17.0625 15.3125 16.45 15.3125 15.75C15.3125 13.825 10.0625 14.2625 10.0625 11.375C10.0625 9.45 11.375 8.3125 13.8125 8.3125C15.575 8.3125 17.0625 9.1875 17.0625 9.1875L16.1875 10.9375C16.1875 10.9375 15.1375 10.5 14 10.5Z" fill="white"/>
</svg>
